:FULLY-SPECIFIED
:FORCE-ALL-JOINTS-BE-3DOF
:DEGREES
442
root 4.71411 16.3984 -8.64861 -60.4304 -3.09323 -66.1307
lfemur -29.3503 -5.14554 -13.2563
ltibia 45.1001 0 0
lfoot -14.1197 10.0124 0
ltoes -0.577809 0 0
rfemur -43.2553 -13.4775 18.1558
rtibia 79.9472 0 0
rfoot 6.43879 -3.47968 0
rtoes 22.9249 0 0
lowerback 5.94352 3.79241 0.213328
upperback 1.17088 5.06273 -0.360034
thorax -2.04667 2.54614 -0.76944
lowerneck -7.35914 -1.75618 4.1944
upperneck 6.49889 -2.78658 0.663203
head 3.35133 -1.25874 -0.82442
lclavicle -3.29553e-14 5.52115e-15 0
lhumerus -47.6581 -22.0171 102.924
lradius 52.8677 0 0
lwrist 14.2155 0 0
lhand -10.236 2.08314 0
lfingers 7.12502 0 0
lthumb 15.7283 31.1033 0
rclavicle -3.29553e-14 5.52115e-15 0
rhumerus -39.3758 20.7311 -88.9912
rradius 76.2044 0 0
rwrist 8.40978 0 0
rhand -7.42683 -16.0273 0
rfingers 7.12502 0 0
rthumb 18.4002 -764.498 0
443
root 4.72708 16.399 -8.58355 -62.6565 -1.59503 -68.3486
lfemur -29.2899 -5.47707 -13.4177
ltibia 45.2038 0 0
lfoot -14.3062 9.70298 0
ltoes -0.441455 0 0
rfemur -43.5396 -13.0602 17.8854
rtibia 79.7057 0 0
rfoot 6.49467 -3.32798 0
rtoes 22.2213 0 0
lowerback 5.98898 3.73987 0.211734
upperback 1.16671 4.99444 -0.307673
thorax -2.0793 2.51264 -0.710561
lowerneck -7.39222 -1.91999 4.06606
upperneck 6.57628 -2.99485 0.674898
head 3.38279 -1.36293 -0.813801
lclavicle -3.2203e-14 5.60802e-15 0
lhumerus -47.7272 -22.2185 103.254
lradius 52.9302 0 0
lwrist 14.0182 0 0
lhand -9.88654 2.04271 0
lfingers 7.12502 0 0
lthumb 16.0636 31.0227 0
rclavicle -3.2203e-14 5.60802e-15 0
rhumerus -39.2151 21.2632 -88.8828
rradius 76.7361 0 0
rwrist 8.43737 0 0
rhand -7.00007 -15.9257 0
rfingers 7.12502 0 0
rthumb 18.8094 -764.345 0
444
root 4.7405 16.3996 -8.51908 -64.8916 -0.0798851 -70.5747
lfemur -29.2278 -5.8086 -13.5807
ltibia 45.3088 0 0
lfoot -14.4945 9.38869 0
ltoes -0.299389 0 0
rfemur -43.8265 -12.6404 17.6145
rtibia 79.4602 0 0
rfoot 6.5518 -3.17362 0
rtoes 21.5122 0 0
lowerback 6.03496 3.68626 0.209329
upperback 1.1628 4.9247 -0.255191
thorax -2.11194 2.47841 -0.651018
lowerneck -7.42538 -2.08582 3.93616
upperneck 6.65379 -3.20573 0.68751
head 3.41439 -1.46841 -0.802759
lclavicle -3.14373e-14 5.69035e-15 0
lhumerus -47.7958 -22.423 103.584
lradius 52.9938 0 0
lwrist 13.8202 0 0
lhand -9.53285 2.0027 0
lfingers 7.12502 0 0
lthumb 16.4029 30.942 0
rclavicle -3.14373e-14 5.69035e-15 0
rhumerus -39.0536 21.8024 -88.7738
rradius 77.2728 0 0
rwrist 8.46385 0 0
rhand -6.57043 -15.8229 0
rfingers 7.12502 0 0
rthumb 19.2213 -764.19 0
445
root 4.75435 16.4001 -8.45519 -67.1345 1.45114 -72.8077
lfemur -29.164 -6.13992 -13.7453
ltibia 45.4149 0 0
lfoot -14.6844 9.06985 0
ltoes -0.151835 0 0
rfemur -44.116 -12.2182 17.3434
rtibia 79.2107 0 0
rfoot 6.61012 -3.01665 0
rtoes 20.7981 0 0
lowerback 6.08142 3.63163 0.206128
upperback 1.15913 4.85357 -0.202611
thorax -2.14458 2.44349 -0.590845
lowerneck -7.4586 -2.25355 3.80477
upperneck 6.73141 -3.41905 0.701017
head 3.44612 -1.5751 -0.791308
lclavicle -3.06588e-14 5.76823e-15 0
lhumerus -47.8638 -22.6306 103.917
lradius 53.0583 0 0
lwrist 13.6217 0 0
lhand -9.17519 1.96311 0
lfingers 7.12502 0 0
lthumb 16.7461 30.8613 0
rclavicle -3.06588e-14 5.76823e-15 0
rhumerus -38.8912 22.348 -88.6641
rradius 77.8144 0 0
rwrist 8.48907 0 0
rhand -6.13825 -15.7191 0
rfingers 7.12502 0 0
rthumb 19.6356 -764.034 0
446
root 4.76862 16.4005 -8.39187 -69.3836 2.99698 -75.0463
lfemur -29.0987 -6.47083 -13.9114
ltibia 45.5222 0 0
lfoot -14.8759 8.7468 0
ltoes 0.000981921 0 0
rfemur -44.4078 -11.7939 17.0721
rtibia 78.9575 0 0
rfoot 6.66957 -2.85716 0
rtoes 20.0793 0 0
lowerback 6.12832 3.57603 0.202145
upperback 1.15569 4.78111 -0.149955
thorax -2.1772 2.4079 -0.530077
lowerneck -7.49188 -2.42307 3.67201
upperneck 6.80912 -3.63468 0.715395
head 3.47798 -1.68293 -0.779463
lclavicle -2.98685e-14 5.84172e-15 0
lhumerus -47.9312 -22.841 104.25
lradius 53.1237 0 0
lwrist 13.4228 0 0
lhand -8.81386 1.92394 0
lfingers 7.12502 0 0
lthumb 17.0927 30.7805 0
rclavicle -2.98685e-14 5.84172e-15 0
rhumerus -38.7277 22.8997 -88.5537
rradius 78.3605 0 0
rwrist 8.51289 0 0
rhand -5.70386 -15.6142 0
rfingers 7.12502 0 0
rthumb 20.0521 -763.877 0
447
root 4.78327 16.4009 -8.32913 -71.6376 4.5566 -77.289
lfemur -29.0319 -6.80109 -14.0788
ltibia 45.6305 0 0
lfoot -15.069 8.41986 0
ltoes 0.158838 0 0
rfemur -44.7018 -11.3679 16.8007
rtibia 78.7008 0 0
rfoot 6.73007 -2.69521 0
rtoes 19.3563 0 0
lowerback 6.17561 3.51948 0.197392
upperback 1.15249 4.70736 -0.0972449
thorax -2.20977 2.37167 -0.468747
lowerneck -7.52519 -2.59426 3.53795
upperneck 6.8869 -3.85246 0.73062
head 3.50995 -1.79183 -0.767239
lclavicle -2.90671e-14 5.91091e-15 0
lhumerus -47.9978 -23.0542 104.585
lradius 53.19 0 0
lwrist 13.2237 0 0
lhand -8.44916 1.8852 0
lfingers 7.12502 0 0
lthumb 17.4427 30.6997 0
rclavicle -2.90671e-14 5.91091e-15 0
rhumerus -38.5632 23.4568 -88.4427
rradius 78.9108 0 0
rwrist 8.53517 0 0
rhand -5.26758 -15.5085 0
rfingers 7.12502 0 0
rthumb 20.4703 -763.719 0
